<mxfile host="Electron" agent="Mozilla/5.0 (Windows NT 10.0; Win64; x64) AppleWebKit/537.36 (KHTML, like Gecko) draw.io/26.0.4 Chrome/128.0.6613.186 Electron/32.2.5 Safari/537.36" version="26.0.4">
  <diagram name="Page-1" id="9f46799a-70d6-7492-0946-bef42562c5a5">
    <mxGraphModel dx="551" dy="853" grid="1" gridSize="10" guides="1" tooltips="1" connect="1" arrows="1" fold="1" page="1" pageScale="1" pageWidth="1100" pageHeight="850" background="none" math="0" shadow="0">
      <root>
        <mxCell id="0" />
        <mxCell id="1" parent="0" />
        <mxCell id="wcbxn7Ds-aadcPzxxdTk-101" value="" style="edgeStyle=orthogonalEdgeStyle;rounded=0;orthogonalLoop=1;jettySize=auto;html=1;entryX=0;entryY=0.5;entryDx=0;entryDy=0;" parent="1" source="wcbxn7Ds-aadcPzxxdTk-2" target="wcbxn7Ds-aadcPzxxdTk-72" edge="1">
          <mxGeometry relative="1" as="geometry" />
        </mxCell>
        <mxCell id="wcbxn7Ds-aadcPzxxdTk-102" style="edgeStyle=orthogonalEdgeStyle;rounded=0;orthogonalLoop=1;jettySize=auto;html=1;exitX=1;exitY=0.5;exitDx=0;exitDy=0;exitPerimeter=0;entryX=0;entryY=0.5;entryDx=0;entryDy=0;" parent="1" source="wcbxn7Ds-aadcPzxxdTk-2" target="wcbxn7Ds-aadcPzxxdTk-90" edge="1">
          <mxGeometry relative="1" as="geometry" />
        </mxCell>
        <mxCell id="wcbxn7Ds-aadcPzxxdTk-2" value="DataBase&lt;div&gt;&lt;/div&gt;&lt;div&gt;MySQL&lt;/div&gt;" style="shape=cylinder3;whiteSpace=wrap;html=1;boundedLbl=1;backgroundOutline=1;size=15;" parent="1" vertex="1">
          <mxGeometry x="1410" y="1135" width="60" height="80" as="geometry" />
        </mxCell>
        <mxCell id="wcbxn7Ds-aadcPzxxdTk-3" value="&lt;div&gt;AI Chatbot RASA&lt;/div&gt;" style="rounded=1;whiteSpace=wrap;html=1;arcSize=0;" parent="1" vertex="1">
          <mxGeometry x="2790" y="1150" width="120" height="60" as="geometry" />
        </mxCell>
        <mxCell id="wcbxn7Ds-aadcPzxxdTk-97" value="" style="edgeStyle=orthogonalEdgeStyle;rounded=0;orthogonalLoop=1;jettySize=auto;html=1;exitX=1;exitY=0.5;exitDx=0;exitDy=0;" parent="1" source="wcbxn7Ds-aadcPzxxdTk-104" target="wcbxn7Ds-aadcPzxxdTk-3" edge="1">
          <mxGeometry relative="1" as="geometry">
            <mxPoint x="2740" y="1180" as="sourcePoint" />
          </mxGeometry>
        </mxCell>
        <mxCell id="wcbxn7Ds-aadcPzxxdTk-98" value="Depoly" style="edgeLabel;html=1;align=center;verticalAlign=middle;resizable=0;points=[];" parent="wcbxn7Ds-aadcPzxxdTk-97" vertex="1" connectable="0">
          <mxGeometry x="-0.025" y="-3" relative="1" as="geometry">
            <mxPoint y="-3" as="offset" />
          </mxGeometry>
        </mxCell>
        <mxCell id="wcbxn7Ds-aadcPzxxdTk-62" value="" style="group" parent="1" vertex="1" connectable="0">
          <mxGeometry x="1820" y="1040" width="600" height="60" as="geometry" />
        </mxCell>
        <mxCell id="wcbxn7Ds-aadcPzxxdTk-16" value="" style="edgeStyle=orthogonalEdgeStyle;rounded=0;orthogonalLoop=1;jettySize=auto;html=1;" parent="wcbxn7Ds-aadcPzxxdTk-62" source="wcbxn7Ds-aadcPzxxdTk-8" target="wcbxn7Ds-aadcPzxxdTk-9" edge="1">
          <mxGeometry relative="1" as="geometry" />
        </mxCell>
        <mxCell id="wcbxn7Ds-aadcPzxxdTk-8" value="&lt;div&gt;Tokenizer&lt;/div&gt;" style="rounded=1;whiteSpace=wrap;html=1;arcSize=0;" parent="wcbxn7Ds-aadcPzxxdTk-62" vertex="1">
          <mxGeometry width="120" height="60" as="geometry" />
        </mxCell>
        <mxCell id="wcbxn7Ds-aadcPzxxdTk-18" value="" style="edgeStyle=orthogonalEdgeStyle;rounded=0;orthogonalLoop=1;jettySize=auto;html=1;" parent="wcbxn7Ds-aadcPzxxdTk-62" source="wcbxn7Ds-aadcPzxxdTk-9" target="wcbxn7Ds-aadcPzxxdTk-10" edge="1">
          <mxGeometry relative="1" as="geometry" />
        </mxCell>
        <mxCell id="wcbxn7Ds-aadcPzxxdTk-9" value="&lt;div&gt;Featurizer&lt;/div&gt;" style="rounded=1;whiteSpace=wrap;html=1;arcSize=0;" parent="wcbxn7Ds-aadcPzxxdTk-62" vertex="1">
          <mxGeometry x="160" width="120" height="60" as="geometry" />
        </mxCell>
        <mxCell id="wcbxn7Ds-aadcPzxxdTk-10" value="&lt;div&gt;Embedding&lt;/div&gt;" style="rounded=1;whiteSpace=wrap;html=1;arcSize=0;" parent="wcbxn7Ds-aadcPzxxdTk-62" vertex="1">
          <mxGeometry x="320" width="120" height="60" as="geometry" />
        </mxCell>
        <mxCell id="wcbxn7Ds-aadcPzxxdTk-106" style="edgeStyle=orthogonalEdgeStyle;rounded=0;orthogonalLoop=1;jettySize=auto;html=1;exitX=1;exitY=0.5;exitDx=0;exitDy=0;entryX=0;entryY=0.5;entryDx=0;entryDy=0;" parent="1" source="wcbxn7Ds-aadcPzxxdTk-63" target="wcbxn7Ds-aadcPzxxdTk-104" edge="1">
          <mxGeometry relative="1" as="geometry" />
        </mxCell>
        <mxCell id="wcbxn7Ds-aadcPzxxdTk-63" value="" style="swimlane;startSize=0;" parent="1" vertex="1">
          <mxGeometry x="1580" y="990" width="930" height="140" as="geometry" />
        </mxCell>
        <mxCell id="wcbxn7Ds-aadcPzxxdTk-66" value="RASA NLU Model" style="text;html=1;align=center;verticalAlign=middle;resizable=0;points=[];autosize=1;strokeColor=none;fillColor=none;" parent="wcbxn7Ds-aadcPzxxdTk-63" vertex="1">
          <mxGeometry x="-5" width="120" height="30" as="geometry" />
        </mxCell>
        <mxCell id="wcbxn7Ds-aadcPzxxdTk-11" value="&lt;div&gt;Intent and&amp;nbsp;&lt;span style=&quot;background-color: transparent; color: light-dark(rgb(0, 0, 0), rgb(255, 255, 255));&quot;&gt;Entities&lt;/span&gt;&lt;/div&gt;" style="rounded=1;whiteSpace=wrap;html=1;arcSize=0;" parent="1" vertex="1">
          <mxGeometry x="2370" y="1040" width="120" height="60" as="geometry" />
        </mxCell>
        <mxCell id="wcbxn7Ds-aadcPzxxdTk-20" value="" style="edgeStyle=orthogonalEdgeStyle;rounded=0;orthogonalLoop=1;jettySize=auto;html=1;" parent="1" source="wcbxn7Ds-aadcPzxxdTk-10" target="wcbxn7Ds-aadcPzxxdTk-11" edge="1">
          <mxGeometry relative="1" as="geometry" />
        </mxCell>
        <mxCell id="wcbxn7Ds-aadcPzxxdTk-70" value="output" style="edgeLabel;html=1;align=center;verticalAlign=middle;resizable=0;points=[];" parent="wcbxn7Ds-aadcPzxxdTk-20" vertex="1" connectable="0">
          <mxGeometry x="-0.0697" y="2" relative="1" as="geometry">
            <mxPoint x="1" as="offset" />
          </mxGeometry>
        </mxCell>
        <mxCell id="wcbxn7Ds-aadcPzxxdTk-74" value="" style="edgeStyle=orthogonalEdgeStyle;rounded=0;orthogonalLoop=1;jettySize=auto;html=1;" parent="1" source="wcbxn7Ds-aadcPzxxdTk-72" target="wcbxn7Ds-aadcPzxxdTk-8" edge="1">
          <mxGeometry relative="1" as="geometry" />
        </mxCell>
        <mxCell id="wcbxn7Ds-aadcPzxxdTk-75" value="input" style="edgeLabel;html=1;align=center;verticalAlign=middle;resizable=0;points=[];" parent="wcbxn7Ds-aadcPzxxdTk-74" vertex="1" connectable="0">
          <mxGeometry x="-0.0273" y="2" relative="1" as="geometry">
            <mxPoint as="offset" />
          </mxGeometry>
        </mxCell>
        <mxCell id="wcbxn7Ds-aadcPzxxdTk-72" value="&lt;div&gt;Content&lt;/div&gt;" style="rounded=1;whiteSpace=wrap;html=1;arcSize=0;" parent="1" vertex="1">
          <mxGeometry x="1600" y="1040" width="120" height="60" as="geometry" />
        </mxCell>
        <mxCell id="wcbxn7Ds-aadcPzxxdTk-76" style="edgeStyle=orthogonalEdgeStyle;rounded=0;orthogonalLoop=1;jettySize=auto;html=1;exitX=0.5;exitY=1;exitDx=0;exitDy=0;" parent="1" source="wcbxn7Ds-aadcPzxxdTk-11" target="wcbxn7Ds-aadcPzxxdTk-11" edge="1">
          <mxGeometry relative="1" as="geometry" />
        </mxCell>
        <mxCell id="wcbxn7Ds-aadcPzxxdTk-107" style="edgeStyle=orthogonalEdgeStyle;rounded=0;orthogonalLoop=1;jettySize=auto;html=1;exitX=1;exitY=0.5;exitDx=0;exitDy=0;entryX=0;entryY=0.5;entryDx=0;entryDy=0;" parent="1" source="wcbxn7Ds-aadcPzxxdTk-83" target="wcbxn7Ds-aadcPzxxdTk-104" edge="1">
          <mxGeometry relative="1" as="geometry">
            <mxPoint x="2560" y="1170.0000000000002" as="targetPoint" />
            <Array as="points">
              <mxPoint x="2540" y="1280" />
              <mxPoint x="2540" y="1180" />
            </Array>
          </mxGeometry>
        </mxCell>
        <mxCell id="wcbxn7Ds-aadcPzxxdTk-83" value="" style="swimlane;startSize=0;" parent="1" vertex="1">
          <mxGeometry x="1580" y="1210" width="810" height="140" as="geometry" />
        </mxCell>
        <mxCell id="wcbxn7Ds-aadcPzxxdTk-84" value="RASA Core Model" style="text;html=1;align=center;verticalAlign=middle;resizable=0;points=[];autosize=1;strokeColor=none;fillColor=none;" parent="wcbxn7Ds-aadcPzxxdTk-83" vertex="1">
          <mxGeometry x="-5" width="120" height="30" as="geometry" />
        </mxCell>
        <mxCell id="wcbxn7Ds-aadcPzxxdTk-81" value="Policy" style="rounded=1;whiteSpace=wrap;html=1;arcSize=0;" parent="wcbxn7Ds-aadcPzxxdTk-83" vertex="1">
          <mxGeometry x="440" y="50" width="120" height="60" as="geometry" />
        </mxCell>
        <mxCell id="wcbxn7Ds-aadcPzxxdTk-85" value="Action Execution" style="rounded=1;whiteSpace=wrap;html=1;arcSize=0;" parent="wcbxn7Ds-aadcPzxxdTk-83" vertex="1">
          <mxGeometry x="670" y="50" width="120" height="60" as="geometry" />
        </mxCell>
        <mxCell id="wcbxn7Ds-aadcPzxxdTk-91" style="edgeStyle=orthogonalEdgeStyle;rounded=0;orthogonalLoop=1;jettySize=auto;html=1;exitX=0.5;exitY=1;exitDx=0;exitDy=0;" parent="wcbxn7Ds-aadcPzxxdTk-83" source="wcbxn7Ds-aadcPzxxdTk-85" target="wcbxn7Ds-aadcPzxxdTk-85" edge="1">
          <mxGeometry relative="1" as="geometry" />
        </mxCell>
        <mxCell id="wcbxn7Ds-aadcPzxxdTk-86" value="" style="edgeStyle=orthogonalEdgeStyle;rounded=0;orthogonalLoop=1;jettySize=auto;html=1;exitX=1;exitY=0.5;exitDx=0;exitDy=0;" parent="wcbxn7Ds-aadcPzxxdTk-83" source="wcbxn7Ds-aadcPzxxdTk-81" target="wcbxn7Ds-aadcPzxxdTk-85" edge="1">
          <mxGeometry relative="1" as="geometry">
            <mxPoint x="680" y="80" as="sourcePoint" />
          </mxGeometry>
        </mxCell>
        <mxCell id="wcbxn7Ds-aadcPzxxdTk-87" value="output" style="edgeLabel;html=1;align=center;verticalAlign=middle;resizable=0;points=[];" parent="wcbxn7Ds-aadcPzxxdTk-86" vertex="1" connectable="0">
          <mxGeometry x="-0.0697" y="2" relative="1" as="geometry">
            <mxPoint x="1" as="offset" />
          </mxGeometry>
        </mxCell>
        <mxCell id="wcbxn7Ds-aadcPzxxdTk-88" value="" style="edgeStyle=orthogonalEdgeStyle;rounded=0;orthogonalLoop=1;jettySize=auto;html=1;" parent="1" source="wcbxn7Ds-aadcPzxxdTk-90" target="wcbxn7Ds-aadcPzxxdTk-79" edge="1">
          <mxGeometry relative="1" as="geometry" />
        </mxCell>
        <mxCell id="wcbxn7Ds-aadcPzxxdTk-89" value="input" style="edgeLabel;html=1;align=center;verticalAlign=middle;resizable=0;points=[];" parent="wcbxn7Ds-aadcPzxxdTk-88" vertex="1" connectable="0">
          <mxGeometry x="-0.0273" y="2" relative="1" as="geometry">
            <mxPoint as="offset" />
          </mxGeometry>
        </mxCell>
        <mxCell id="wcbxn7Ds-aadcPzxxdTk-90" value="Intent and&amp;nbsp;&lt;span style=&quot;color: light-dark(rgb(0, 0, 0), rgb(255, 255, 255)); background-color: transparent;&quot;&gt;Entities&lt;/span&gt;" style="rounded=1;whiteSpace=wrap;html=1;arcSize=0;" parent="1" vertex="1">
          <mxGeometry x="1600" y="1260" width="120" height="60" as="geometry" />
        </mxCell>
        <mxCell id="wcbxn7Ds-aadcPzxxdTk-78" value="" style="edgeStyle=orthogonalEdgeStyle;rounded=0;orthogonalLoop=1;jettySize=auto;html=1;" parent="1" source="wcbxn7Ds-aadcPzxxdTk-79" target="wcbxn7Ds-aadcPzxxdTk-81" edge="1">
          <mxGeometry relative="1" as="geometry" />
        </mxCell>
        <mxCell id="wcbxn7Ds-aadcPzxxdTk-79" value="Dialogue State Tracker" style="rounded=1;whiteSpace=wrap;html=1;arcSize=0;" parent="1" vertex="1">
          <mxGeometry x="1820" y="1260" width="150" height="60" as="geometry" />
        </mxCell>
        <mxCell id="wcbxn7Ds-aadcPzxxdTk-104" value="RASA Train" style="rounded=1;whiteSpace=wrap;html=1;arcSize=0;" parent="1" vertex="1">
          <mxGeometry x="2570" y="1150" width="120" height="60" as="geometry" />
        </mxCell>
        <mxCell id="wcbxn7Ds-aadcPzxxdTk-105" style="edgeStyle=orthogonalEdgeStyle;rounded=0;orthogonalLoop=1;jettySize=auto;html=1;exitX=0.5;exitY=1;exitDx=0;exitDy=0;" parent="1" source="wcbxn7Ds-aadcPzxxdTk-104" target="wcbxn7Ds-aadcPzxxdTk-104" edge="1">
          <mxGeometry relative="1" as="geometry" />
        </mxCell>
        <mxCell id="wVL5oA36bYoVsArTjiwR-7" style="edgeStyle=orthogonalEdgeStyle;rounded=0;orthogonalLoop=1;jettySize=auto;html=1;" edge="1" parent="1" source="wVL5oA36bYoVsArTjiwR-9" target="wVL5oA36bYoVsArTjiwR-16">
          <mxGeometry relative="1" as="geometry">
            <mxPoint x="1625" y="545" as="targetPoint" />
          </mxGeometry>
        </mxCell>
        <mxCell id="wVL5oA36bYoVsArTjiwR-8" value="Chat Request" style="edgeLabel;html=1;align=center;verticalAlign=middle;resizable=0;points=[];" vertex="1" connectable="0" parent="wVL5oA36bYoVsArTjiwR-7">
          <mxGeometry x="-0.5833" y="1" relative="1" as="geometry">
            <mxPoint x="17" y="1" as="offset" />
          </mxGeometry>
        </mxCell>
        <mxCell id="wVL5oA36bYoVsArTjiwR-9" value="User" style="shape=umlActor;verticalLabelPosition=bottom;verticalAlign=top;html=1;outlineConnect=0;" vertex="1" parent="1">
          <mxGeometry x="1400" y="542.5" width="30" height="60" as="geometry" />
        </mxCell>
        <mxCell id="wVL5oA36bYoVsArTjiwR-10" value="" style="swimlane;startSize=0;" vertex="1" parent="1">
          <mxGeometry x="1535" y="330" width="1005" height="490" as="geometry">
            <mxRectangle x="230" y="240" width="50" height="40" as="alternateBounds" />
          </mxGeometry>
        </mxCell>
        <mxCell id="wVL5oA36bYoVsArTjiwR-11" value="Application" style="text;html=1;align=center;verticalAlign=middle;resizable=0;points=[];autosize=1;strokeColor=none;fillColor=none;" vertex="1" parent="wVL5oA36bYoVsArTjiwR-10">
          <mxGeometry x="915" y="10" width="80" height="30" as="geometry" />
        </mxCell>
        <mxCell id="wVL5oA36bYoVsArTjiwR-12" value="DataBase&lt;div&gt;&lt;/div&gt;&lt;div&gt;MySQL&lt;/div&gt;" style="shape=cylinder3;whiteSpace=wrap;html=1;boundedLbl=1;backgroundOutline=1;size=15;" vertex="1" parent="wVL5oA36bYoVsArTjiwR-10">
          <mxGeometry x="925" y="205" width="60" height="80" as="geometry" />
        </mxCell>
        <mxCell id="wVL5oA36bYoVsArTjiwR-13" value="&lt;div&gt;Backend&lt;/div&gt;&lt;div&gt;FastAPI &lt;/div&gt;" style="rounded=1;whiteSpace=wrap;html=1;arcSize=0;" vertex="1" parent="wVL5oA36bYoVsArTjiwR-10">
          <mxGeometry x="645" y="20" width="120" height="50" as="geometry" />
        </mxCell>
        <mxCell id="wVL5oA36bYoVsArTjiwR-14" style="edgeStyle=orthogonalEdgeStyle;rounded=0;orthogonalLoop=1;jettySize=auto;html=1;exitX=1;exitY=0.5;exitDx=0;exitDy=0;entryX=0;entryY=0.5;entryDx=0;entryDy=0;" edge="1" parent="wVL5oA36bYoVsArTjiwR-10" source="wVL5oA36bYoVsArTjiwR-16" target="wVL5oA36bYoVsArTjiwR-23">
          <mxGeometry relative="1" as="geometry" />
        </mxCell>
        <mxCell id="wVL5oA36bYoVsArTjiwR-15" value="REST API" style="edgeLabel;html=1;align=center;verticalAlign=middle;resizable=0;points=[];" vertex="1" connectable="0" parent="wVL5oA36bYoVsArTjiwR-14">
          <mxGeometry x="-0.0143" y="4" relative="1" as="geometry">
            <mxPoint y="3" as="offset" />
          </mxGeometry>
        </mxCell>
        <mxCell id="wVL5oA36bYoVsArTjiwR-16" value="&lt;div&gt;&lt;br&gt;&lt;/div&gt;&lt;div&gt;Frontend &lt;/div&gt;&lt;div&gt;Angular&lt;/div&gt;" style="rounded=1;whiteSpace=wrap;html=1;arcSize=0;" vertex="1" parent="wVL5oA36bYoVsArTjiwR-10">
          <mxGeometry x="55" y="110" width="100" height="265" as="geometry" />
        </mxCell>
        <mxCell id="wVL5oA36bYoVsArTjiwR-17" value="" style="endArrow=block;startArrow=block;endFill=1;startFill=1;html=1;rounded=0;edgeStyle=orthogonalEdgeStyle;entryX=1;entryY=0.25;entryDx=0;entryDy=0;exitX=0.5;exitY=1;exitDx=0;exitDy=0;" edge="1" parent="wVL5oA36bYoVsArTjiwR-10" source="wVL5oA36bYoVsArTjiwR-13" target="wVL5oA36bYoVsArTjiwR-24">
          <mxGeometry width="160" relative="1" as="geometry">
            <mxPoint x="530" y="110" as="sourcePoint" />
            <mxPoint x="530" y="212.5" as="targetPoint" />
            <Array as="points">
              <mxPoint x="705" y="227" />
            </Array>
          </mxGeometry>
        </mxCell>
        <mxCell id="wVL5oA36bYoVsArTjiwR-18" value="REST API" style="edgeLabel;html=1;align=center;verticalAlign=middle;resizable=0;points=[];" vertex="1" connectable="0" parent="wVL5oA36bYoVsArTjiwR-17">
          <mxGeometry x="-0.131" y="2" relative="1" as="geometry">
            <mxPoint x="-2" y="-12" as="offset" />
          </mxGeometry>
        </mxCell>
        <mxCell id="wVL5oA36bYoVsArTjiwR-19" value="" style="endArrow=block;startArrow=block;endFill=1;startFill=1;html=1;rounded=0;edgeStyle=orthogonalEdgeStyle;entryX=0.496;entryY=0;entryDx=0;entryDy=0;entryPerimeter=0;exitX=1;exitY=0.75;exitDx=0;exitDy=0;" edge="1" parent="wVL5oA36bYoVsArTjiwR-10" source="wVL5oA36bYoVsArTjiwR-24" target="wVL5oA36bYoVsArTjiwR-29">
          <mxGeometry width="160" relative="1" as="geometry">
            <mxPoint x="409.47" y="272.5" as="sourcePoint" />
            <mxPoint x="409.47" y="317.5" as="targetPoint" />
            <Array as="points" />
          </mxGeometry>
        </mxCell>
        <mxCell id="wVL5oA36bYoVsArTjiwR-20" value="REST API" style="edgeLabel;html=1;align=center;verticalAlign=middle;resizable=0;points=[];" vertex="1" connectable="0" parent="wVL5oA36bYoVsArTjiwR-19">
          <mxGeometry x="-0.131" y="2" relative="1" as="geometry">
            <mxPoint x="-2" y="18" as="offset" />
          </mxGeometry>
        </mxCell>
        <mxCell id="wVL5oA36bYoVsArTjiwR-21" value="" style="swimlane;startSize=0;" vertex="1" parent="wVL5oA36bYoVsArTjiwR-10">
          <mxGeometry x="265" y="170" width="405" height="131.25" as="geometry" />
        </mxCell>
        <mxCell id="wVL5oA36bYoVsArTjiwR-22" value="AI Chatbot RASA" style="text;html=1;align=center;verticalAlign=middle;whiteSpace=wrap;rounded=0;" vertex="1" parent="wVL5oA36bYoVsArTjiwR-21">
          <mxGeometry width="120" height="30" as="geometry" />
        </mxCell>
        <mxCell id="wVL5oA36bYoVsArTjiwR-23" value="&lt;div&gt;NLU API&lt;/div&gt;" style="rounded=1;whiteSpace=wrap;html=1;arcSize=0;" vertex="1" parent="wVL5oA36bYoVsArTjiwR-21">
          <mxGeometry x="30" y="42.5" width="120" height="60" as="geometry" />
        </mxCell>
        <mxCell id="wVL5oA36bYoVsArTjiwR-24" value="&lt;div&gt;Core API&lt;/div&gt;" style="rounded=1;whiteSpace=wrap;html=1;arcSize=0;" vertex="1" parent="wVL5oA36bYoVsArTjiwR-21">
          <mxGeometry x="260" y="42.5" width="120" height="60" as="geometry" />
        </mxCell>
        <mxCell id="wVL5oA36bYoVsArTjiwR-25" value="" style="edgeStyle=orthogonalEdgeStyle;rounded=0;orthogonalLoop=1;jettySize=auto;html=1;" edge="1" parent="wVL5oA36bYoVsArTjiwR-21" source="wVL5oA36bYoVsArTjiwR-23" target="wVL5oA36bYoVsArTjiwR-24">
          <mxGeometry relative="1" as="geometry" />
        </mxCell>
        <mxCell id="wVL5oA36bYoVsArTjiwR-26" value="Intent and Entities" style="edgeLabel;html=1;align=center;verticalAlign=middle;resizable=0;points=[];" vertex="1" connectable="0" parent="wVL5oA36bYoVsArTjiwR-25">
          <mxGeometry y="1" relative="1" as="geometry">
            <mxPoint x="-1" as="offset" />
          </mxGeometry>
        </mxCell>
        <mxCell id="wVL5oA36bYoVsArTjiwR-27" value="" style="endArrow=block;startArrow=block;endFill=1;startFill=1;html=1;rounded=0;edgeStyle=orthogonalEdgeStyle;exitX=0;exitY=0.5;exitDx=0;exitDy=0;exitPerimeter=0;" edge="1" parent="wVL5oA36bYoVsArTjiwR-10" source="wVL5oA36bYoVsArTjiwR-12" target="wVL5oA36bYoVsArTjiwR-29">
          <mxGeometry width="160" relative="1" as="geometry">
            <mxPoint x="853" y="618.7499999999998" as="sourcePoint" />
            <mxPoint x="1140" y="423" as="targetPoint" />
            <Array as="points">
              <mxPoint x="835" y="244" />
              <mxPoint x="835" y="437" />
            </Array>
          </mxGeometry>
        </mxCell>
        <mxCell id="wVL5oA36bYoVsArTjiwR-28" value="REST API" style="edgeLabel;html=1;align=center;verticalAlign=middle;resizable=0;points=[];" vertex="1" connectable="0" parent="wVL5oA36bYoVsArTjiwR-27">
          <mxGeometry x="-0.0371" y="-1" relative="1" as="geometry">
            <mxPoint as="offset" />
          </mxGeometry>
        </mxCell>
        <mxCell id="wVL5oA36bYoVsArTjiwR-29" value="&lt;div&gt;Power BI&lt;/div&gt;" style="rounded=1;whiteSpace=wrap;html=1;arcSize=0;" vertex="1" parent="wVL5oA36bYoVsArTjiwR-10">
          <mxGeometry x="645" y="410" width="120" height="55" as="geometry" />
        </mxCell>
        <mxCell id="wVL5oA36bYoVsArTjiwR-30" value="" style="endArrow=classic;html=1;rounded=0;entryX=1;entryY=0.5;entryDx=0;entryDy=0;exitX=0;exitY=0.5;exitDx=0;exitDy=0;exitPerimeter=0;" edge="1" parent="wVL5oA36bYoVsArTjiwR-10" source="wVL5oA36bYoVsArTjiwR-12" target="wVL5oA36bYoVsArTjiwR-13">
          <mxGeometry width="50" height="50" relative="1" as="geometry">
            <mxPoint x="625" y="350" as="sourcePoint" />
            <mxPoint x="675" y="300" as="targetPoint" />
            <Array as="points">
              <mxPoint x="835" y="244" />
              <mxPoint x="835" y="45" />
            </Array>
          </mxGeometry>
        </mxCell>
        <mxCell id="wVL5oA36bYoVsArTjiwR-31" value="&lt;span style=&quot;color: rgba(0, 0, 0, 0); font-family: monospace; font-size: 0px; text-align: start; background-color: rgb(251, 251, 251);&quot;&gt;%3CmxGraphModel%3E%3Croot%3E%3CmxCell%20id%3D%220%22%2F%3E%3CmxCell%20id%3D%221%22%20parent%3D%220%22%2F%3E%3CmxCell%20id%3D%222%22%20value%3D%22REST%20API%22%20style%3D%22edgeLabel%3Bhtml%3D1%3Balign%3Dcenter%3BverticalAlign%3Dmiddle%3Bresizable%3D0%3Bpoints%3D%5B%5D%3B%22%20vertex%3D%221%22%20connectable%3D%220%22%20parent%3D%221%22%3E%3CmxGeometry%20x%3D%221031.9999999999995%22%20y%3D%22500.62499988636296%22%20as%3D%22geometry%22%2F%3E%3C%2FmxCell%3E%3C%2Froot%3E%3C%2FmxGraphModel%3E&lt;/span&gt;" style="edgeLabel;html=1;align=center;verticalAlign=middle;resizable=0;points=[];" vertex="1" connectable="0" parent="wVL5oA36bYoVsArTjiwR-30">
          <mxGeometry x="0.1924" relative="1" as="geometry">
            <mxPoint as="offset" />
          </mxGeometry>
        </mxCell>
        <mxCell id="wVL5oA36bYoVsArTjiwR-32" value="&lt;span style=&quot;color: rgba(0, 0, 0, 0); font-family: monospace; font-size: 0px; text-align: start; background-color: rgb(251, 251, 251);&quot;&gt;%3CmxGraphModel%3E%3Croot%3E%3CmxCell%20id%3D%220%22%2F%3E%3CmxCell%20id%3D%221%22%20parent%3D%220%22%2F%3E%3CmxCell%20id%3D%222%22%20value%3D%22REST%20API%22%20style%3D%22edgeLabel%3Bhtml%3D1%3Balign%3Dcenter%3BverticalAlign%3Dmiddle%3Bresizable%3D0%3Bpoints%3D%5B%5D%3B%22%20vertex%3D%221%22%20connectable%3D%220%22%20parent%3D%221%22%3E%3CmxGeometry%20x%3D%221031.9999999999995%22%20y%3D%22500.62499988636296%22%20as%3D%22geometry%22%2F%3E%3C%2FmxCell%3E%3C%2Froot%3E%3C%2FmxGraphModel%3E&lt;/span&gt;" style="edgeLabel;html=1;align=center;verticalAlign=middle;resizable=0;points=[];" vertex="1" connectable="0" parent="wVL5oA36bYoVsArTjiwR-30">
          <mxGeometry x="-0.0207" relative="1" as="geometry">
            <mxPoint as="offset" />
          </mxGeometry>
        </mxCell>
        <mxCell id="wVL5oA36bYoVsArTjiwR-33" value="REST API" style="edgeLabel;html=1;align=center;verticalAlign=middle;resizable=0;points=[];" vertex="1" connectable="0" parent="wVL5oA36bYoVsArTjiwR-30">
          <mxGeometry x="-0.0207" relative="1" as="geometry">
            <mxPoint as="offset" />
          </mxGeometry>
        </mxCell>
        <mxCell id="wVL5oA36bYoVsArTjiwR-34" style="edgeStyle=orthogonalEdgeStyle;rounded=0;orthogonalLoop=1;jettySize=auto;html=1;exitX=0.5;exitY=1;exitDx=0;exitDy=0;entryX=1.023;entryY=0.869;entryDx=0;entryDy=0;entryPerimeter=0;" edge="1" parent="wVL5oA36bYoVsArTjiwR-10" source="wVL5oA36bYoVsArTjiwR-24" target="wVL5oA36bYoVsArTjiwR-16">
          <mxGeometry relative="1" as="geometry" />
        </mxCell>
        <mxCell id="wVL5oA36bYoVsArTjiwR-35" value="REST API" style="edgeLabel;html=1;align=center;verticalAlign=middle;resizable=0;points=[];" vertex="1" connectable="0" parent="wVL5oA36bYoVsArTjiwR-34">
          <mxGeometry x="0.0832" relative="1" as="geometry">
            <mxPoint as="offset" />
          </mxGeometry>
        </mxCell>
        <mxCell id="wVL5oA36bYoVsArTjiwR-85" style="edgeStyle=orthogonalEdgeStyle;rounded=0;orthogonalLoop=1;jettySize=auto;html=1;exitX=-0.022;exitY=0.868;exitDx=0;exitDy=0;exitPerimeter=0;" edge="1" parent="1" source="wVL5oA36bYoVsArTjiwR-16">
          <mxGeometry relative="1" as="geometry">
            <mxPoint x="1738" y="690" as="sourcePoint" />
            <mxPoint x="1440" y="600" as="targetPoint" />
            <Array as="points">
              <mxPoint x="1480" y="670" />
              <mxPoint x="1480" y="601" />
            </Array>
          </mxGeometry>
        </mxCell>
        <mxCell id="wVL5oA36bYoVsArTjiwR-86" value="Chat Response" style="edgeLabel;html=1;align=center;verticalAlign=middle;resizable=0;points=[];" vertex="1" connectable="0" parent="wVL5oA36bYoVsArTjiwR-85">
          <mxGeometry x="0.0832" relative="1" as="geometry">
            <mxPoint y="-11" as="offset" />
          </mxGeometry>
        </mxCell>
      </root>
    </mxGraphModel>
  </diagram>
</mxfile>
